<svg width="227" height="87" viewBox="0 0 227 87" fill="none" xmlns="http://www.w3.org/2000/svg">
<rect y="59" width="42" height="9" fill="#D0BF07"/>
<rect y="41.0001" width="42" height="9" fill="#D0BF07"/>
<rect y="23.0001" width="42" height="9" fill="#D0BF07"/>
<rect y="62" width="39" height="10" transform="rotate(-90 0 62)" fill="#D0BF07"/>
<path d="M58.98 23.6001V68.0001H48.72V23.6001H58.98ZM97.9753 50.7201C97.9753 51.6801 97.9153 52.6801 97.7953 53.7201H74.5753C74.7353 55.8001 75.3953 57.4001 76.5553 58.5201C77.7553 59.6001 79.2153 60.1401 80.9353 60.1401C83.4953 60.1401 85.2753 59.0601 86.2753 56.9001H97.1953C96.6353 59.1001 95.6153 61.0801 94.1353 62.8401C92.6953 64.6001 90.8753 65.9801 88.6753 66.9801C86.4753 67.9801 84.0153 68.4801 81.2953 68.4801C78.0153 68.4801 75.0953 67.7801 72.5353 66.3801C69.9753 64.9801 67.9753 62.9801 66.5353 60.3801C65.0953 57.7801 64.3753 54.7401 64.3753 51.2601C64.3753 47.7801 65.0753 44.7401 66.4753 42.1401C67.9153 39.5401 69.9153 37.5401 72.4753 36.1401C75.0353 34.7401 77.9753 34.0401 81.2953 34.0401C84.5353 34.0401 87.4153 34.7201 89.9353 36.0801C92.4553 37.4401 94.4153 39.3801 95.8153 41.9001C97.2553 44.4201 97.9753 47.3601 97.9753 50.7201ZM87.4753 48.0201C87.4753 46.2601 86.8753 44.8601 85.6753 43.8201C84.4753 42.7801 82.9753 42.2601 81.1753 42.2601C79.4553 42.2601 77.9953 42.7601 76.7953 43.7601C75.6353 44.7601 74.9153 46.1801 74.6353 48.0201H87.4753ZM101.348 51.2601C101.348 47.7801 102.048 44.7401 103.448 42.1401C104.888 39.5401 106.868 37.5401 109.388 36.1401C111.948 34.7401 114.868 34.0401 118.148 34.0401C122.348 34.0401 125.848 35.1401 128.648 37.3401C131.488 39.5401 133.348 42.6401 134.228 46.6401H123.308C122.388 44.0801 120.608 42.8001 117.968 42.8001C116.088 42.8001 114.588 43.5401 113.468 45.0201C112.348 46.4601 111.788 48.5401 111.788 51.2601C111.788 53.9801 112.348 56.0801 113.468 57.5601C114.588 59.0001 116.088 59.7201 117.968 59.7201C120.608 59.7201 122.388 58.4401 123.308 55.8801H134.228C133.348 59.8001 131.488 62.8801 128.648 65.1201C125.808 67.3601 122.308 68.4801 118.148 68.4801C114.868 68.4801 111.948 67.7801 109.388 66.3801C106.868 64.9801 104.888 62.9801 103.448 60.3801C102.048 57.7801 101.348 54.7401 101.348 51.2601ZM158.376 59.3001V68.0001H153.156C149.436 68.0001 146.536 67.1001 144.456 65.3001C142.376 63.4601 141.336 60.4801 141.336 56.3601V43.0401H137.256V34.5201H141.336V26.3601H151.596V34.5201H158.316V43.0401H151.596V56.4801C151.596 57.4801 151.836 58.2001 152.316 58.6401C152.796 59.0801 153.596 59.3001 154.716 59.3001H158.376ZM174.351 40.1001C175.551 38.2601 177.051 36.8201 178.851 35.7801C180.651 34.7001 182.651 34.1601 184.851 34.1601V45.0201H182.031C179.471 45.0201 177.551 45.5801 176.271 46.7001C174.991 47.7801 174.351 49.7001 174.351 52.4601V68.0001H164.091V34.5201H174.351V40.1001ZM187.715 51.2001C187.715 47.7601 188.355 44.7401 189.635 42.1401C190.955 39.5401 192.735 37.5401 194.975 36.1401C197.215 34.7401 199.715 34.0401 202.475 34.0401C204.835 34.0401 206.895 34.5201 208.655 35.4801C210.455 36.4401 211.835 37.7001 212.795 39.2601V34.5201H223.055V68.0001H212.795V63.2601C211.795 64.8201 210.395 66.0801 208.595 67.0401C206.835 68.0001 204.775 68.4801 202.415 68.4801C199.695 68.4801 197.215 67.7801 194.975 66.3801C192.735 64.9401 190.955 62.9201 189.635 60.3201C188.355 57.6801 187.715 54.6401 187.715 51.2001ZM212.795 51.2601C212.795 48.7001 212.075 46.6801 210.635 45.2001C209.235 43.7201 207.515 42.9801 205.475 42.9801C203.435 42.9801 201.695 43.7201 200.255 45.2001C198.855 46.6401 198.155 48.6401 198.155 51.2001C198.155 53.7601 198.855 55.8001 200.255 57.3201C201.695 58.8001 203.435 59.5401 205.475 59.5401C207.515 59.5401 209.235 58.8001 210.635 57.3201C212.075 55.8401 212.795 53.8201 212.795 51.2601Z" fill="#D0BF07"/>
<path d="M28.8429 29.2072L28.8429 14.5072C28.8429 13.0372 28.4813 11.9055 27.7579 11.1122C27.0346 10.3189 25.9729 9.92221 24.5729 9.92221C23.1729 9.92221 22.0996 10.3189 21.3529 11.1122C20.6063 11.9055 20.2329 13.0372 20.2329 14.5072V29.2072H14.2479V14.5422C14.2479 12.3489 14.7146 10.4939 15.6479 8.97721C16.5813 7.46054 17.8413 6.31721 19.4279 5.54721C20.9913 4.77721 22.7413 4.39221 24.6779 4.39221C26.6146 4.39221 28.3529 4.76554 29.8929 5.51221C31.4096 6.28221 32.6113 7.42554 33.4979 8.94221C34.3846 10.4822 34.8279 12.3489 34.8279 14.5422L34.8279 29.2072H28.8429Z" fill="#D0BF07"/>
</svg>
